<?xml version="1.0" encoding="UTF-8" standalone="no"?>
<!-- Created with Inkscape (http://www.inkscape.org/) -->

<svg
   width="32"
   height="32"
   viewBox="0 0 8.4666666 8.4666666"
   version="1.1"
   id="svg1"
   inkscape:version="1.3.2 (091e20e, 2023-11-25, custom)"
   sodipodi:docname="img.svg"
   xmlns:inkscape="http://www.inkscape.org/namespaces/inkscape"
   xmlns:sodipodi="http://sodipodi.sourceforge.net/DTD/sodipodi-0.dtd"
   xmlns="http://www.w3.org/2000/svg"
   xmlns:svg="http://www.w3.org/2000/svg">
  <sodipodi:namedview
     id="namedview1"
     pagecolor="#ffffff"
     bordercolor="#000000"
     borderopacity="0.25"
     inkscape:showpageshadow="2"
     inkscape:pageopacity="0.0"
     inkscape:pagecheckerboard="0"
     inkscape:deskcolor="#d1d1d1"
     inkscape:document-units="mm"
     inkscape:zoom="16.549473"
     inkscape:cx="18.490015"
     inkscape:cy="17.31173"
     inkscape:window-width="1920"
     inkscape:window-height="1017"
     inkscape:window-x="-8"
     inkscape:window-y="-8"
     inkscape:window-maximized="1"
     inkscape:current-layer="layer1" />
  <defs
     id="defs1" />
  <g
     inkscape:label="Layer 1"
     inkscape:groupmode="layer"
     id="layer1">
    <rect
       style="fill:#2e3375;stroke-width:0.264583;fill-opacity:1"
       id="rect1"
       width="7.8817968"
       height="7.8658094"
       x="0.31974837"
       y="0.31974837"
       ry="0.53557849" />
    <path
       id="text3-3"
       style="font-size:6.25841px;fill:#f9f9f9;stroke-width:0.521533"
       d="M 5.4791875,1.5177368 6.8615321,4.905127 H 7.4434087 L 8.2175217,3.0210042 V 1.5466756 L 7.1726242,4.2136963 6.1070562,1.5177368 Z" />
    <path
       d="M 6.3253006,7.6288082 H 5.4952224 V 7.1936321 Q 5.075768,7.4568434 4.6916363,7.5972229 4.3075043,7.7376023 3.8438969,7.7376023 q -0.7770944,0 -1.2097946,-0.3755149 Q 2.201402,6.9830631 2.201402,6.2530902 V 3.7087139 h 0.8300781 v 2.2320322 q 0,0.2983062 0.035322,0.5123848 0.035322,0.210569 0.1501206,0.361477 0.1192129,0.1544172 0.3090716,0.224607 0.1898583,0.070189 0.5519136,0.070189 0.3223175,0 0.7020341,-0.1333603 0.3841319,-0.1333604 0.71528,-0.3404201 V 3.7087139 h 0.8300782 z"
       id="text2-4"
       style="font-size:6.46457px;fill:#f9f9f9;stroke-width:0.671815"
       aria-label="u" />
    <path
       d="M 2.998021,1.7089508 H 2.9605171 Q 2.8442544,1.681972 2.6567342,1.6549931 2.4692139,1.6250166 2.3266985,1.6250166 q -0.453799,0 -0.6600713,0.1618732 -0.202522,0.1588755 -0.202522,0.5785465 V 2.479347 H 2.7354927 V 2.9529758 H 1.4866077 V 5.8277226 H 0.78153141 V 2.9529758 H 0.3052299 V 2.479347 H 0.78153141 V 2.368434 q 0,-0.5965325 0.37129009,-0.9142834 0.3712902,-0.3207486 1.072616,-0.3207486 0.2362755,0 0.4237959,0.017986 0.1912707,0.017986 0.3487876,0.041967 z"
       id="text1-8"
       style="font-size:6.76419px;fill:#f9f9f9;stroke-width:0.57224"
       aria-label="f" />
  </g>
</svg>
